<?xml version="1.0" encoding="UTF-8" standalone="no"?>
<!-- Created with Inkscape (http://www.inkscape.org/) -->

<svg
   width="1423.325mm"
   height="394.66599mm"
   preserveAspectRatio="xMinYMid"
   viewBox="0 0 578.81891 160.49753"
   version="1.1"
   id="svg50"
   sodipodi:docname="intelecy-logo.svg"
   inkscape:version="1.3.2 (091e20ef0f, 2023-11-25)"
   xmlns:inkscape="http://www.inkscape.org/namespaces/inkscape"
   xmlns:sodipodi="http://sodipodi.sourceforge.net/DTD/sodipodi-0.dtd"
   xmlns="http://www.w3.org/2000/svg"
   xmlns:svg="http://www.w3.org/2000/svg">
  <sodipodi:namedview
     id="namedview1"
     pagecolor="#ffffff"
     bordercolor="#000000"
     borderopacity="0.25"
     inkscape:showpageshadow="2"
     inkscape:pageopacity="0.0"
     inkscape:pagecheckerboard="0"
     inkscape:deskcolor="#d1d1d1"
     inkscape:zoom="0.34358757"
     inkscape:cx="1343.1801"
     inkscape:cy="1447.9569"
     inkscape:window-width="3840"
     inkscape:window-height="2093"
     inkscape:window-x="2560"
     inkscape:window-y="30"
     inkscape:window-maximized="1"
     inkscape:current-layer="svg50"
     inkscape:document-units="mm"
     showgrid="true">
    <inkscape:grid
       id="grid1"
       units="mm"
       originx="0"
       originy="-1.7748738e-08"
       spacingx="1.2200002"
       spacingy="1.2200002"
       empcolor="#0099e5"
       empopacity="0.30196078"
       color="#0099e5"
       opacity="0.14901961"
       empspacing="5"
       dotted="true"
       gridanglex="30"
       gridanglez="30"
       visible="true" />
  </sodipodi:namedview>
  <defs
     id="defs54" />
  <path
     fill="#333333"
     d="m 76.399999,6.0975302 a 6.1,6.1 0 1 1 -12.199999,0 6.1,6.1 0 0 1 12.199999,0 z"
     id="path134"
     style="stroke-width:0.999997" />
  <path
     fill="#333333"
     d="m 76.4,31.09753 a 6.1,6.1 0 1 1 -12.2,0 6.1,6.1 0 0 1 12.2,0 z"
     id="path136" />
  <path
     fill="#333333"
     d="m 76.4,55.69753 a 6.1,6.1 0 1 1 -12.2,0 6.1,6.1 0 0 1 12.2,0 z"
     id="path138" />
  <path
     fill="#333333"
     d="m 76.4,80.39753 a 6.1,6.1 0 1 1 -12.2,0 6.1,6.1 0 0 1 12.2,0 z"
     id="path140" />
  <path
     fill="#333333"
     d="m 76.4,105.09753 a 6.1,6.1 0 1 1 -12.2,0 6.1,6.1 0 0 1 12.2,0 z"
     id="path142" />
  <path
     fill="#333333"
     d="m 76.4,129.69753 a 6.1,6.1 0 1 1 -12.2,0 6.1,6.1 0 0 1 12.2,0 z"
     id="path144" />
  <path
     fill="#333333"
     d="m 76.4,154.39753 a 6.1,6.1 0 1 1 -12.2,0 6.1,6.1 0 0 1 12.2,0 z"
     id="path146" />
  <path
     fill="#333333"
     d="m 54.8,18.59753 a 6.1,6.1 0 1 1 -12.2,0 6.1,6.1 0 0 1 12.2,0 z"
     id="path148" />
  <path
     fill="#333333"
     d="m 54.8,43.29753 a 6.1,6.1 0 1 1 -12.2,0 6.1,6.1 0 0 1 12.2,0 z"
     id="path150" />
  <path
     fill="#333333"
     d="m 54.8,67.89753 a 6.1,6.1 0 1 1 -12.2,0 6.1,6.1 0 0 1 12.2,0 z"
     id="path152" />
  <path
     fill="#333333"
     d="m 54.8,92.59753 a 6.1,6.1 0 1 1 -12.2,0 6.1,6.1 0 0 1 12.2,0 z"
     id="path154" />
  <path
     fill="#333333"
     d="m 54.8,117.19753 a 6.1,6.1 0 1 1 -12.2,0 6.1,6.1 0 0 1 12.2,0 z"
     id="path156" />
  <path
     fill="#333333"
     d="m 54.8,141.89753 a 6.1,6.1 0 1 1 -12.2,0 6.1,6.1 0 0 1 12.2,0 z"
     id="path158" />
  <path
     fill="#333333"
     d="m 33.5,31.09753 a 6.1,6.1 0 1 1 -12.2,0 6.1,6.1 0 0 1 12.2,0 z"
     id="path160" />
  <path
     fill="#333333"
     d="m 33.5,55.69753 a 6.1,6.1 0 1 1 -12.2,0 6.1,6.1 0 0 1 12.2,0 z"
     id="path162" />
  <path
     fill="#333333"
     d="m 33.5,80.39753 a 6.1,6.1 0 1 1 -12.2,0 6.1,6.1 0 0 1 12.2,0 z"
     id="path164" />
  <path
     fill="#333333"
     d="m 33.5,105.09753 a 6.1,6.1 0 1 1 -12.2,0 6.1,6.1 0 0 1 12.2,0 z"
     id="path166" />
  <path
     fill="#333333"
     d="m 33.5,129.69753 a 6.1,6.1 0 1 1 -12.2,0 6.1,6.1 0 0 1 12.2,0 z"
     id="path168" />
  <path
     fill="#333333"
     d="m 12.2,43.29753 a 6.1,6.1 0 1 1 -12.2,0 6.1,6.1 0 0 1 12.2,0 z"
     id="path170" />
  <path
     fill="#333333"
     d="m 12.2,67.89753 a 6.1,6.1 0 1 1 -12.2,0 6.1,6.1 0 0 1 12.2,0 z"
     id="path172" />
  <path
     fill="#333333"
     d="m 12.2,92.59753 a 6.1,6.1 0 1 1 -12.2,0 6.1,6.1 0 0 1 12.2,0 z"
     id="path174" />
  <path
     fill="#333333"
     d="m 12.2,117.19753 a 6.1,6.1 0 1 1 -12.2,0 6.1,6.1 0 0 1 12.2,0 z"
     id="path176" />
  <path
     fill="#333333"
     d="m 97.7,18.59753 a 6.1,6.1 0 1 1 -12.2,0 6.1,6.1 0 0 1 12.2,0 z"
     id="path178" />
  <path
     fill="#333333"
     d="m 97.7,43.29753 a 6.1,6.1 0 1 1 -12.2,0 6.1,6.1 0 0 1 12.2,0 z"
     id="path180" />
  <path
     fill="#333333"
     d="m 97.7,67.89753 a 6.1,6.1 0 1 1 -12.2,0 6.1,6.1 0 0 1 12.2,0 z"
     id="path182" />
  <path
     fill="#333333"
     d="m 97.7,92.59753 a 6.1,6.1 0 1 1 -12.2,0 6.1,6.1 0 0 1 12.2,0 z"
     id="path184" />
  <path
     fill="#333333"
     d="m 97.7,117.19753 a 6.1,6.1 0 1 1 -12.2,0 6.1,6.1 0 0 1 12.2,0 z"
     id="path186" />
  <path
     fill="#333333"
     d="m 97.7,141.89753 a 6.1,6.1 0 1 1 -12.2,0 6.1,6.1 0 0 1 12.2,0 z"
     id="path188" />
  <path
     fill="#333333"
     d="m 119,31.09753 a 6.1,6.1 0 1 1 -12.2,0 6.1,6.1 0 0 1 12.2,0 z"
     id="path190" />
  <path
     fill="#333333"
     d="m 119,55.69753 a 6.1,6.1 0 1 1 -12.2,0 6.1,6.1 0 0 1 12.2,0 z"
     id="path192" />
  <path
     fill="#333333"
     d="m 119,80.39753 a 6.1,6.1 0 1 1 -12.2,0 6.1,6.1 0 0 1 12.2,0 z"
     id="path194" />
  <path
     fill="#333333"
     d="m 119,105.09753 a 6.1,6.1 0 1 1 -12.2,0 6.1,6.1 0 0 1 12.2,0 z"
     id="path196" />
  <path
     fill="#333333"
     d="m 119,129.69753 a 6.1,6.1 0 1 1 -12.2,0 6.1,6.1 0 0 1 12.2,0 z"
     id="path198" />
  <path
     fill="#333333"
     d="m 140.3,43.29753 a 6.1,6.1 0 1 1 -12.2,0 6.1,6.1 0 0 1 12.2,0 z"
     id="path200" />
  <path
     fill="#333333"
     d="m 140.3,67.89753 a 6.1,6.1 0 1 1 -12.2,0 6.1,6.1 0 0 1 12.2,0 z"
     id="path202" />
  <path
     fill="#333333"
     d="m 140.3,92.59753 a 6.1,6.1 0 1 1 -12.2,0 6.1,6.1 0 0 1 12.2,0 z"
     id="path204" />
  <path
     fill="#333333"
     d="m 140.3,117.19753 a 6.1,6.1 0 1 1 -12.2,0 6.1,6.1 0 0 1 12.2,0 z"
     id="path206" />
  <path
     d="m 204.5,119.99753 c -0.3,0.3 -0.9,0.6 -1.8,0.6 h -2.1 c -0.6,0 -1.2,-0.3 -1.8,-0.6 -0.3,-0.3 -0.6,-0.9 -0.6,-1.8 v -73.7 c 0,-0.6 0.3,-1.2 0.6,-1.8 0.3,-0.3 0.9,-0.6 1.8,-0.6 h 2.1 c 0.6,0 1.2,0.3 1.8,0.6 0.3,0.3 0.6,0.9 0.6,1.8 v 73.7 c 0.1,0.9 -0.3,1.5 -0.6,1.8 z"
     fill="#333333"
     id="path208" />
  <path
     d="m 271.2,119.99753 c -0.3,0.3 -0.9,0.6 -1.8,0.6 h -1.8 c -0.6,0 -1.2,-0.3 -1.8,-0.6 -0.3,-0.3 -0.6,-0.9 -0.6,-1.8 v -31.4 c 0,-6.1 -1.5,-10.7 -4.6,-14 -3,-3.3 -7.3,-5.2 -12.8,-5.2 -5.5,0 -9.7,1.8 -12.8,5.2 -3.3,3.3 -4.9,8.2 -4.9,14 v 31.3 c 0,0.6 -0.3,1.2 -0.6,1.8 -0.3,0.3 -0.9,0.6 -1.8,0.6 h -1.8 c -0.6,0 -1.2,-0.3 -1.8,-0.6 -0.3,-0.3 -0.6,-0.9 -0.6,-1.8 v -53.3 c 0,-0.6 0.3,-1.2 0.6,-1.8 0.3,-0.3 0.9,-0.6 1.8,-0.6 h 1.8 c 0.6,0 1.2,0.3 1.8,0.6 0.3,0.3 0.6,0.9 0.6,1.8 v 5.2 c 2.1,-3 4.9,-5.2 7.6,-6.7 2.7,-1.5 6.7,-2.1 11.3,-2.1 7.3,0 13.1,2.4 17,7 4,4.6 6.1,10.7 6.1,18 v 32 c -0.3,0.9 -0.6,1.5 -0.9,1.8 z"
     fill="#333333"
     id="path210" />
  <path
     d="m 300.7,111.09753 c 1.5,2.1 3.7,3.3 7,3.3 h 6.1 c 0.6,0 1.2,0.3 1.8,0.6 0.3,0.3 0.6,0.9 0.6,1.8 v 1.5 c 0,0.6 -0.3,1.2 -0.6,1.8 -0.3,0.3 -0.9,0.6 -1.8,0.6 h -6.7 c -5.5,0 -9.4,-1.5 -11.9,-4.9 -2.4,-3.3 -3.3,-7.9 -3.3,-13.7 v -33.2 h -8.8 c -0.6,0 -1.2,-0.3 -1.8,-0.6 -0.3,-0.3 -0.6,-0.9 -0.6,-1.8 v -1.5 c 0,-0.6 0.3,-1.2 0.6,-1.8 0.3,-0.3 0.9,-0.6 1.8,-0.6 h 8.8 v -18.9 c 0,-0.6 0.3,-1.2 0.6,-1.8 0.3,-0.3 0.9,-0.6 1.8,-0.6 h 1.8 c 0.6,0 1.2,0.3 1.8,0.6 0.3,0.3 0.6,0.9 0.6,1.8 v 18.9 h 14 c 0.6,0 1.2,0.3 1.8,0.6 0.3,0.3 0.6,0.9 0.6,1.8 v 1.5 c 0,0.6 -0.3,1.2 -0.6,1.8 -0.3,0.3 -0.9,0.6 -1.8,0.6 h -14 v 32.6 c 0.4,4.2 1,7.5 2.2,9.6 z"
     fill="#333333"
     id="path212" />
  <path
     d="m 366.2,69.09753 c 4.3,5.2 6.7,12.2 6.7,21.3 v 1.8 c 0,0.6 -0.3,1.2 -0.6,1.8 -0.6,0.3 -1.2,0.6 -1.8,0.6 h -39.9 v 1.2 c 0,3.7 0.9,6.7 2.4,9.7 1.5,3 3.3,5.5 6.1,7.3 2.7,1.8 5.8,2.7 9.1,2.7 4,0 7.3,-0.9 10,-2.4 2.4,-1.5 4.6,-3.3 5.5,-4.9 0.6,-0.9 1.2,-1.5 1.5,-1.8 0.3,-0.3 0.9,-0.3 1.8,-0.3 h 1.8 c 0.6,0 1.2,0.3 1.8,0.6 0.3,0.3 0.6,0.9 0.6,1.5 0,1.5 -0.9,3.3 -3,5.8 -2.1,2.1 -4.9,4 -8.2,5.8 -3.7,1.5 -7.6,2.4 -11.9,2.4 -7,0 -12.8,-2.4 -17,-7 -4.3,-4.6 -6.7,-11 -7.3,-18.9 v -9.2 c 0.6,-7.9 3,-14 7.3,-18.6 4.3,-4.6 10,-7 17.3,-7 7.4,-0.3 13.5,2.5 17.8,7.6 z m -0.3,18.9 v -0.3 c 0,-5.8 -1.5,-10.3 -4.9,-14.3 -3.3,-3.7 -7.6,-5.5 -13.1,-5.5 -5.5,0 -9.7,1.8 -13.1,5.5 -3,3.7 -4.9,8.5 -4.9,14.3 v 0.3 z"
     fill="#333333"
     id="path214" />
  <path
     d="m 392.9,119.99753 c -0.3,0.3 -0.9,0.6 -1.8,0.6 h -1.8 c -0.6,0 -1.2,-0.3 -1.8,-0.6 -0.3,-0.3 -0.6,-0.9 -0.6,-1.8 v -74.6 c 0,-0.6 0.3,-1.2 0.6,-1.8 0.3,-0.3 0.9,-0.6 1.8,-0.6 h 1.8 c 0.6,0 1.2,0.3 1.8,0.6 0.3,0.3 0.6,0.9 0.6,1.8 v 74.6 c 0.1,0.9 -0.2,1.5 -0.6,1.8 z"
     fill="#333333"
     id="path216" />
  <path
     d="m 450.8,69.09753 c 4.3,5.2 6.7,12.2 6.7,21.3 v 1.8 c 0,0.6 -0.3,1.2 -0.6,1.8 -0.6,0.3 -1.2,0.6 -1.8,0.6 h -39.9 v 1.2 c 0,3.7 0.9,6.7 2.4,9.7 1.5,3 3.3,5.5 6.1,7.3 2.7,1.8 5.8,2.7 9.1,2.7 4,0 7.3,-0.9 10,-2.4 2.4,-1.5 4.6,-3.3 5.5,-4.9 0.6,-0.9 1.2,-1.5 1.5,-1.8 0.3,-0.3 0.9,-0.3 1.8,-0.3 h 1.8 c 0.6,0 1.2,0.3 1.8,0.6 0.3,0.3 0.6,0.9 0.6,1.5 0,1.5 -0.9,3.3 -3,5.8 -2.1,2.1 -4.9,4 -8.2,5.8 -3.7,1.5 -7.6,2.4 -11.9,2.4 -7,0 -12.8,-2.4 -17,-7 -4.3,-4.6 -6.7,-11 -7.3,-18.9 v -9.2 c 0.6,-7.9 3,-14 7.3,-18.6 4.3,-4.6 10,-7 17.3,-7 7.4,-0.3 13.5,2.5 17.8,7.6 z m -0.3,18.9 v -0.3 c 0,-5.8 -1.5,-10.3 -4.9,-14.3 -3.3,-3.7 -7.6,-5.5 -13.1,-5.5 -5.5,0 -9.7,1.8 -13.1,5.5 -3,3.7 -4.9,8.5 -4.9,14.3 v 0.3 z"
     fill="#333333"
     id="path218" />
  <path
     d="m 481.5,110.49753 c 3,3.3 7.3,4.9 12.8,4.9 4,0 7.6,-0.9 10.3,-2.7 2.7,-1.8 4.9,-4.6 6.4,-8.8 0.3,-0.9 0.6,-1.5 0.9,-1.8 0.3,-0.3 0.9,-0.6 1.5,-0.6 h 1.5 c 0.6,0 1.2,0.3 1.8,0.6 0.6,0.6 0.6,1.2 0.6,1.8 0,3 -1.2,5.8 -2.7,8.5 -1.8,2.7 -4.3,4.9 -7.9,6.7 -3.3,1.8 -7.6,2.7 -12.5,2.7 -7.9,0 -13.7,-2.1 -18,-6.7 -4.3,-4.6 -6.4,-11 -6.7,-18.9 v -9.2 c 0.3,-8.2 2.4,-14.6 6.7,-18.9 4.3,-4.6 10.3,-6.7 18,-6.7 4.9,0 9.1,0.9 12.5,2.7 3.3,1.8 6.1,4 7.9,6.7 1.8,2.7 2.7,5.5 2.7,8.5 0,0.6 0,1.2 -0.6,1.8 -0.6,0.6 -1.2,0.6 -1.8,0.6 h -1.5 c -0.6,0 -1.2,-0.3 -1.5,-0.6 -0.3,-0.3 -0.6,-0.9 -0.9,-1.8 -1.5,-4 -3.7,-7 -6.4,-8.8 -2.7,-1.8 -6.1,-2.7 -10.3,-2.7 -5.5,0 -9.7,1.5 -12.8,4.9 -3,3.3 -4.9,8.2 -5.2,14.9 v 8 c 0.3,6.7 1.9,11.6 5.2,14.9 z"
     fill="#333333"
     id="path220" />
  <path
     d="m 530.8,63.09753 c 0.3,-0.3 0.9,-0.6 1.8,-0.6 h 1.8 c 0.6,0 1.2,0.3 1.8,0.6 0.3,0.3 0.6,0.9 0.6,1.8 v 31.3 c 0,6.1 1.5,10.7 4.6,14 3,3.3 7.3,5.2 12.8,5.2 5.5,0 9.7,-1.8 12.8,-5.2 3.3,-3.3 4.9,-8.2 4.9,-14 v -31.3 c 0,-0.6 0.3,-1.2 0.6,-1.8 0.3,-0.3 0.9,-0.6 1.8,-0.6 h 1.8 c 0.6,0 1.2,0.3 1.8,0.6 0.3,0.3 0.6,0.9 0.6,1.8 v 53.3 c 0,0.6 -0.3,1.2 -0.6,1.8 -0.3,0.3 -0.9,0.6 -1.8,0.6 h -1.8 c -0.6,0 -1.2,-0.3 -1.8,-0.6 -0.3,-0.3 -0.6,-0.9 -0.6,-1.8 v -5.2 c -2.1,3 -4.9,5.2 -7.6,6.7 -2.7,1.5 -6.7,2.1 -11.3,2.1 -7.3,0 -13.1,-2.4 -17,-7 -4,-4.6 -6.1,-10.7 -6.1,-18 v -32 c 0.3,-0.5 0.6,-1.1 0.9,-1.7 z"
     fill="#333333"
     id="path222" />
  <path
     d="m 578,63.09753 c -0.6,-0.6 -1.2,-0.6 -1.8,-0.6 h -1.8 c -0.6,0 -1.2,0.3 -1.8,0.6 -0.3,0.6 -0.6,1.2 -0.6,1.8 v 55.4 c 0,6.7 -1.5,11.6 -4.6,14.3 -3,2.7 -7.9,4 -14.3,4 -8.5,0 -13.7,-3.3 -16.1,-10.3 -0.3,-0.9 -0.6,-1.5 -1.2,-1.8 -0.3,-0.3 -0.9,-0.6 -1.5,-0.6 h -1.5 c -0.6,0 -1.2,0.3 -1.8,0.6 -0.6,0.3 -0.6,0.9 -0.6,1.8 0,1.8 0.6,4.3 2.1,6.7 1.5,2.4 4,4.9 7.3,7 3.7,2.1 8.2,3 14,3 9.1,0 15.8,-2.4 19.5,-7 3.7,-4.6 5.5,-11 5.5,-18.9 v -54.5 c 0.1,-0.3 -0.2,-0.9 -0.8,-1.5 z"
     fill="#333333"
     id="path224" />
</svg>
